<svg xmlns="http://www.w3.org/2000/svg" xmlns:xlink="http://www.w3.org/1999/xlink" width="4096" zoomAndPan="magnify" viewBox="0 0 3072 374.999991" height="500" preserveAspectRatio="xMidYMid meet" version="1.0"><path fill="#85d89c" d="M 3017.4375 27.980469 C 2975.199219 7.675781 2946.738281 71.121094 2929.335938 90.519531 C 2883.113281 142 2815.496094 99.945312 2760.933594 130.398438 C 2711.445312 157.953125 2708.90625 216.503906 2689.511719 260.734375 C 2673.378906 297.714844 2594.34375 308.226562 2607.03125 355.359375 L 2615.734375 387.988281 L 3072 387.988281 L 3072 31.605469 C 3072 31.605469 3041.726562 39.582031 3017.4375 27.980469 Z M 3017.4375 27.980469 " fill-opacity="1" fill-rule="nonzero"/><path fill="#85d89c" d="M 53.789062 20.054688 C 95.425781 0.0390625 123.484375 62.585938 140.640625 81.707031 C 186.207031 132.460938 252.863281 91 306.65625 121.023438 C 355.441406 148.183594 357.941406 205.90625 377.0625 249.511719 C 392.96875 285.964844 470.882812 296.332031 458.375 342.792969 L 449.796875 374.960938 L 0 374.960938 L 0 23.628906 C 0 23.628906 29.84375 31.492188 53.789062 20.054688 Z M 53.789062 20.054688 " fill-opacity="1" fill-rule="nonzero"/><path fill="#35a15e" d="M 2906.625 213.171875 C 2903.78125 211.398438 2901.621094 209.011719 2900.140625 206.003906 C 2896.808594 199.804688 2896.558594 189.882812 2903.886719 188.609375 C 2909.90625 187.570312 2915.191406 196.777344 2916.605469 202.386719 C 2917.554688 206.183594 2917.359375 210.59375 2914.8125 212.867188 C 2914.230469 213.308594 2913.589844 213.652344 2912.902344 213.898438 C 2912.210938 214.140625 2911.5 214.277344 2910.769531 214.304688 C 2910.035156 214.332031 2909.316406 214.25 2908.609375 214.054688 C 2907.902344 213.863281 2907.242188 213.566406 2906.625 213.171875 Z M 2869.003906 239.507812 C 2867.410156 240.078125 2865.765625 240.363281 2864.074219 240.363281 C 2862.382812 240.363281 2860.742188 240.078125 2859.148438 239.507812 C 2855.070312 238.441406 2851.527344 236.429688 2848.523438 233.472656 C 2842.953125 227.757812 2841 214.085938 2850.546875 214.980469 C 2857.050781 215.589844 2872.316406 222.507812 2873.625 231.105469 C 2873.742188 231.960938 2873.722656 232.816406 2873.566406 233.664062 C 2873.410156 234.515625 2873.121094 235.316406 2872.707031 236.074219 C 2872.289062 236.832031 2871.765625 237.503906 2871.132812 238.089844 C 2870.5 238.679688 2869.789062 239.152344 2869.003906 239.507812 Z M 2879.753906 310.886719 C 2876.835938 309.484375 2874.253906 307.617188 2872.011719 305.28125 C 2870.851562 304.0625 2869.929688 302.683594 2869.246094 301.144531 C 2868.5625 299.609375 2868.160156 298 2868.035156 296.320312 C 2867.675781 284.890625 2880.703125 291.699219 2885.949219 295.265625 C 2887.390625 296.15625 2888.652344 297.25 2889.738281 298.546875 C 2890.824219 299.847656 2891.675781 301.285156 2892.292969 302.859375 C 2893.421875 306.050781 2892.972656 309.832031 2890.769531 311.820312 C 2887.867188 314.167969 2883.425781 312.769531 2879.753906 310.886719 Z M 2953.460938 347.328125 C 2953.730469 351.738281 2950.234375 355.480469 2946.292969 355.035156 C 2942.351562 354.585938 2938.679688 350.015625 2938.785156 345.628906 C 2939 335.414062 2952.851562 337.117188 2953.460938 347.328125 Z M 2912.394531 282.617188 C 2908.417969 282.148438 2904.835938 277.582031 2904.835938 273.210938 C 2905.085938 262.996094 2918.917969 264.699219 2919.542969 274.894531 C 2919.597656 275.390625 2919.597656 275.886719 2919.546875 276.382812 C 2919.496094 276.878906 2919.390625 277.363281 2919.234375 277.835938 C 2919.078125 278.308594 2918.871094 278.761719 2918.617188 279.191406 C 2918.367188 279.621094 2918.070312 280.019531 2917.730469 280.382812 C 2917.390625 280.75 2917.015625 281.078125 2916.609375 281.363281 C 2916.199219 281.648438 2915.765625 281.886719 2915.304688 282.078125 C 2914.84375 282.273438 2914.371094 282.414062 2913.878906 282.503906 C 2913.390625 282.59375 2912.894531 282.632812 2912.394531 282.617188 Z M 3002.53125 403.140625 C 3006.222656 403.246094 3010.808594 407.277344 3012.90625 410.628906 C 3013.582031 411.699219 3014.132812 412.828125 3014.5625 414.019531 C 3014.992188 415.207031 3015.289062 416.429688 3015.449219 417.683594 C 3015.613281 418.941406 3015.640625 420.199219 3015.527344 421.457031 C 3015.414062 422.71875 3015.167969 423.953125 3014.789062 425.15625 C 3013.210938 429.601562 3008.945312 432.789062 3004.503906 431.570312 C 3003.59375 431.234375 3002.734375 430.796875 3001.925781 430.257812 C 3001.117188 429.71875 3000.378906 429.097656 2999.714844 428.386719 C 2999.050781 427.679688 2998.480469 426.902344 2997.996094 426.0625 C 2997.511719 425.21875 2997.132812 424.332031 2996.851562 423.402344 C 2995.679688 419.605469 2995.558594 415.777344 2996.496094 411.917969 C 2997.335938 408.066406 2998.410156 403.050781 3002.53125 403.140625 Z M 3070.453125 446.746094 C 3070.351562 447.476562 3070.164062 448.179688 3069.890625 448.863281 C 3069.621094 449.546875 3069.273438 450.191406 3068.847656 450.792969 C 3068.425781 451.394531 3067.9375 451.9375 3067.386719 452.421875 C 3066.832031 452.90625 3066.230469 453.320312 3065.582031 453.664062 C 3057.105469 457.605469 3050.746094 444.703125 3056.730469 438.378906 C 3061.511719 433.308594 3072.011719 438.273438 3070.453125 446.746094 Z M 3019.015625 300.03125 C 3017.402344 300.03125 3015.832031 299.777344 3014.296875 299.273438 C 3012.765625 298.769531 3011.351562 298.035156 3010.058594 297.074219 C 2998.519531 288.117188 3012.582031 278.835938 3019.605469 277.1875 C 3020.546875 276.953125 3021.5 276.84375 3022.464844 276.863281 C 3023.433594 276.882812 3024.378906 277.027344 3025.308594 277.296875 C 3026.238281 277.566406 3027.117188 277.953125 3027.941406 278.460938 C 3028.765625 278.964844 3029.511719 279.566406 3030.175781 280.269531 C 3031.640625 281.914062 3032.558594 283.816406 3032.9375 285.984375 C 3033.109375 286.957031 3033.164062 287.9375 3033.089844 288.925781 C 3033.019531 289.914062 3032.828125 290.875 3032.515625 291.816406 C 3032.199219 292.753906 3031.777344 293.640625 3031.242188 294.472656 C 3030.707031 295.304688 3030.078125 296.058594 3029.351562 296.734375 C 3027.902344 297.921875 3026.285156 298.796875 3024.5 299.367188 C 3022.714844 299.9375 3020.886719 300.15625 3019.015625 300.03125 Z M 3063.804688 363.527344 C 3055.3125 367.46875 3048.953125 354.566406 3054.847656 348.242188 C 3059.632812 343.15625 3070.148438 348.136719 3068.570312 356.609375 C 3068.46875 357.335938 3068.285156 358.039062 3068.015625 358.71875 C 3067.75 359.402344 3067.40625 360.042969 3066.988281 360.644531 C 3066.570312 361.242188 3066.085938 361.789062 3065.539062 362.273438 C 3064.992188 362.761719 3064.398438 363.179688 3063.753906 363.527344 Z M 3009.324219 361.234375 C 3009.21875 361.960938 3009.03125 362.667969 3008.761719 363.351562 C 3008.488281 364.035156 3008.140625 364.675781 3007.71875 365.277344 C 3007.292969 365.878906 3006.808594 366.421875 3006.253906 366.90625 C 3005.703125 367.390625 3005.101562 367.804688 3004.449219 368.148438 C 2995.976562 372.089844 2989.613281 359.191406 2995.582031 352.867188 C 3000.363281 347.832031 3010.882812 352.792969 3009.324219 361.234375 Z M 2945.667969 254.988281 C 2942.441406 258.050781 2936.871094 257.570312 2933.25 254.09375 C 2925.457031 246.566406 2930.402344 237.144531 2936.601562 233.058594 C 2943.980469 228.203125 2949.949219 237.71875 2949.140625 246.046875 C 2949.113281 247.703125 2948.796875 249.300781 2948.199219 250.84375 C 2947.601562 252.386719 2946.757812 253.78125 2945.667969 255.023438 Z M 2969.621094 298.847656 C 2968.042969 303.273438 2963.78125 306.480469 2959.320312 305.246094 C 2958.410156 304.90625 2957.550781 304.464844 2956.746094 303.925781 C 2955.9375 303.390625 2955.203125 302.765625 2954.542969 302.058594 C 2953.878906 301.347656 2953.308594 300.574219 2952.824219 299.730469 C 2952.34375 298.890625 2951.964844 298.003906 2951.6875 297.074219 C 2950.5 293.285156 2950.382812 289.464844 2951.328125 285.609375 C 2952.167969 281.738281 2953.246094 276.648438 2957.347656 276.828125 C 2961.039062 276.828125 2965.644531 280.96875 2967.722656 284.300781 C 2968.398438 285.371094 2968.953125 286.503906 2969.382812 287.695312 C 2969.8125 288.886719 2970.109375 290.109375 2970.273438 291.363281 C 2970.4375 292.621094 2970.464844 293.878906 2970.355469 295.140625 C 2970.246094 296.402344 2970 297.640625 2969.621094 298.847656 Z M 2979.851562 220.859375 C 2971.375 224.800781 2964.996094 211.898438 2970.890625 205.574219 C 2975.675781 200.503906 2986.191406 205.46875 2984.632812 213.941406 C 2984.429688 215.410156 2983.90625 216.75 2983.0625 217.96875 C 2982.222656 219.1875 2981.148438 220.148438 2979.851562 220.859375 Z M 2979.851562 220.859375 " fill-opacity="1" fill-rule="nonzero"/><path fill="#35a15e" d="M 62.59375 383.8125 C 59.878906 385.503906 57.816406 387.78125 56.402344 390.652344 C 53.21875 396.570312 52.980469 406.042969 59.976562 407.257812 C 65.722656 408.25 70.765625 399.457031 72.117188 394.105469 C 73.023438 390.480469 72.835938 386.273438 70.40625 384.101562 C 69.847656 383.679688 69.242188 383.351562 68.582031 383.121094 C 67.921875 382.886719 67.246094 382.753906 66.546875 382.730469 C 65.847656 382.703125 65.160156 382.78125 64.484375 382.96875 C 63.8125 383.152344 63.179688 383.433594 62.59375 383.8125 Z M 26.679688 358.671875 C 25.15625 358.128906 23.589844 357.855469 21.976562 357.855469 C 20.359375 357.855469 18.792969 358.128906 17.273438 358.671875 C 13.378906 359.691406 10 361.613281 7.132812 364.433594 C 1.8125 369.890625 -0.0507812 382.9375 9.0625 382.082031 C 15.273438 381.503906 29.84375 374.902344 31.089844 366.691406 C 31.203125 365.875 31.183594 365.0625 31.035156 364.25 C 30.886719 363.4375 30.613281 362.671875 30.214844 361.949219 C 29.816406 361.226562 29.316406 360.585938 28.710938 360.023438 C 28.105469 359.464844 27.429688 359.011719 26.679688 358.671875 Z M 36.941406 290.539062 C 34.15625 291.878906 31.691406 293.660156 29.550781 295.890625 C 28.445312 297.054688 27.5625 298.367188 26.910156 299.835938 C 26.261719 301.304688 25.875 302.839844 25.753906 304.441406 C 25.414062 315.351562 37.847656 308.855469 42.855469 305.449219 C 44.230469 304.601562 45.4375 303.558594 46.472656 302.316406 C 47.507812 301.074219 48.320312 299.703125 48.910156 298.199219 C 49.988281 295.15625 49.5625 291.546875 47.457031 289.648438 C 44.6875 287.410156 40.445312 288.742188 36.941406 290.539062 Z M 107.296875 255.753906 C 107.554688 251.546875 104.21875 247.972656 100.457031 248.398438 C 96.691406 248.828125 93.1875 253.1875 93.289062 257.378906 C 93.496094 267.125 106.714844 265.5 107.296875 255.753906 Z M 68.097656 317.523438 C 64.300781 317.96875 60.882812 322.328125 60.882812 326.503906 C 61.121094 336.25 74.324219 334.625 74.921875 324.894531 C 74.972656 324.421875 74.976562 323.949219 74.925781 323.476562 C 74.875 323 74.777344 322.539062 74.625 322.085938 C 74.476562 321.632812 74.28125 321.203125 74.039062 320.792969 C 73.796875 320.382812 73.515625 320.003906 73.191406 319.652344 C 72.867188 319.304688 72.511719 318.992188 72.121094 318.722656 C 71.730469 318.449219 71.316406 318.21875 70.875 318.035156 C 70.4375 317.851562 69.984375 317.71875 69.515625 317.632812 C 69.046875 317.546875 68.574219 317.507812 68.097656 317.523438 Z M 154.136719 202.480469 C 157.660156 202.378906 162.039062 198.53125 164.039062 195.332031 C 164.683594 194.3125 165.210938 193.234375 165.621094 192.097656 C 166.03125 190.960938 166.3125 189.792969 166.46875 188.597656 C 166.625 187.398438 166.648438 186.199219 166.542969 184.996094 C 166.433594 183.792969 166.199219 182.613281 165.835938 181.464844 C 164.332031 177.222656 160.261719 174.175781 156.019531 175.339844 C 155.148438 175.664062 154.328125 176.082031 153.558594 176.59375 C 152.785156 177.109375 152.082031 177.703125 151.449219 178.378906 C 150.816406 179.054688 150.269531 179.796875 149.808594 180.601562 C 149.34375 181.40625 148.980469 182.25 148.714844 183.140625 C 147.59375 186.761719 147.480469 190.414062 148.375 194.101562 C 149.179688 197.777344 150.203125 202.566406 154.136719 202.480469 Z M 218.96875 160.855469 C 218.769531 159.445312 218.257812 158.160156 217.4375 156.996094 C 216.617188 155.832031 215.578125 154.917969 214.320312 154.253906 C 206.230469 150.492188 200.160156 162.804688 205.871094 168.84375 C 210.4375 173.683594 220.457031 168.945312 218.96875 160.855469 Z M 169.871094 300.902344 C 168.332031 300.902344 166.832031 301.140625 165.367188 301.625 C 163.90625 302.105469 162.558594 302.804688 161.320312 303.722656 C 150.308594 312.273438 163.730469 321.132812 170.4375 322.707031 C 171.332031 322.929688 172.242188 323.035156 173.164062 323.015625 C 174.085938 323 174.992188 322.859375 175.878906 322.601562 C 176.765625 322.34375 177.601562 321.972656 178.390625 321.492188 C 179.179688 321.011719 179.890625 320.433594 180.527344 319.765625 C 181.921875 318.195312 182.800781 316.378906 183.160156 314.308594 C 183.324219 313.378906 183.375 312.441406 183.308594 311.5 C 183.238281 310.558594 183.054688 309.640625 182.757812 308.742188 C 182.457031 307.847656 182.054688 307 181.542969 306.207031 C 181.03125 305.410156 180.429688 304.691406 179.738281 304.046875 C 178.355469 302.914062 176.808594 302.078125 175.105469 301.535156 C 173.402344 300.992188 171.65625 300.78125 169.871094 300.902344 Z M 212.625 240.292969 C 204.519531 236.53125 198.449219 248.84375 204.074219 254.878906 C 208.640625 259.738281 218.679688 254.984375 217.175781 246.894531 C 216.976562 245.492188 216.472656 244.207031 215.664062 243.042969 C 214.851562 241.882812 213.824219 240.964844 212.574219 240.292969 Z M 160.621094 242.480469 C 160.417969 241.074219 159.90625 239.785156 159.089844 238.621094 C 158.269531 237.457031 157.226562 236.542969 155.96875 235.878906 C 147.878906 232.117188 141.808594 244.429688 147.503906 250.46875 C 152.070312 255.273438 162.105469 250.535156 160.621094 242.480469 Z M 99.855469 343.894531 C 96.777344 340.972656 91.460938 341.433594 88.003906 344.75 C 80.566406 351.933594 85.285156 360.929688 91.203125 364.828125 C 98.25 369.460938 103.945312 360.382812 103.175781 352.429688 C 103.144531 350.851562 102.847656 349.324219 102.277344 347.851562 C 101.707031 346.378906 100.898438 345.046875 99.855469 343.859375 Z M 122.722656 302.03125 C 121.21875 297.804688 117.148438 294.746094 112.886719 295.925781 C 112.019531 296.25 111.203125 296.667969 110.433594 297.183594 C 109.660156 297.695312 108.960938 298.289062 108.328125 298.96875 C 107.695312 299.644531 107.152344 300.382812 106.691406 301.1875 C 106.230469 301.992188 105.867188 302.835938 105.601562 303.722656 C 104.472656 307.339844 104.359375 310.988281 105.261719 314.667969 C 106.066406 318.363281 107.089844 323.21875 111.007812 323.046875 C 114.53125 323.046875 118.925781 319.097656 120.910156 315.917969 C 121.554688 314.894531 122.082031 313.816406 122.496094 312.679688 C 122.90625 311.539062 123.191406 310.371094 123.347656 309.171875 C 123.503906 307.972656 123.527344 306.773438 123.421875 305.566406 C 123.316406 304.363281 123.085938 303.183594 122.722656 302.03125 Z M 132.488281 376.472656 C 124.398438 372.710938 118.308594 385.023438 123.9375 391.0625 C 128.503906 395.902344 138.542969 391.164062 137.054688 383.074219 C 136.859375 381.675781 136.359375 380.394531 135.554688 379.234375 C 134.75 378.070312 133.726562 377.152344 132.488281 376.472656 Z M 132.488281 376.472656 " fill-opacity="1" fill-rule="nonzero"/></svg>